<svg xmlns="http://www.w3.org/2000/svg" xmlns:xlink="http://www.w3.org/1999/xlink" width="60" height="24.826" viewBox="0 0 60 24.826"><defs><clipPath id="a"><rect width="60" height="24.826" fill="#f8b500"/></clipPath></defs><g clip-path="url(#a)"><path d="M13.548,3.131H15.5a3,3,0,0,1,2.968,3.13V21.7a3,3,0,0,1-2.968,3.13H2.983A3.01,3.01,0,0,1,0,21.7V6.262a3.01,3.01,0,0,1,2.983-3.13H5.409a3.914,3.914,0,0,1,7.67,0ZM2.983,5.479c-.43,0-.635.352-.635.783V21.7c0,.43.2.783.635.783H15.5c.43,0,.62-.352.62-.783V6.262c0-.43-.189-.783-.62-.783h-.783V6.653a1.171,1.171,0,0,1-1.174,1.174H4.939A1.171,1.171,0,0,1,3.765,6.653V5.479Zm6.261-.391A1.174,1.174,0,1,0,8.07,3.914,1.174,1.174,0,0,0,9.243,5.088m-4.421,4.5a1.124,1.124,0,1,0,0,2.248h8.842a1.124,1.124,0,1,0,0-2.248Zm0,4.418a1.124,1.124,0,0,0,0,2.248h8.842a1.124,1.124,0,1,0,0-2.248Zm0,4.418a1.124,1.124,0,0,0,0,2.248h8.842a1.124,1.124,0,1,0,0-2.248Z" transform="translate(0 -0.001)" fill="#f8b500"/><path d="M440.767,114.557l-5.317-5.317a1.417,1.417,0,0,0-2,2l2.9,2.9h-9.344a1.416,1.416,0,1,0,0,2.831h9.342l-2.9,2.9a1.417,1.417,0,0,0,2,2l5.314-5.32a1.418,1.418,0,0,0,0-2" transform="translate(-403.386 -103.147)" fill="#f8b500"/><path d="M789.652,35.193a4.689,4.689,0,1,0-4.689-4.689,4.689,4.689,0,0,0,4.689,4.689M787.79,37.23c-4.311,0-7.79,4.135-7.79,9.238,0,.85.43,1.539,1.148,1.539h17.008c.718,0,1.148-.689,1.148-1.539,0-5.1-3.479-9.238-7.79-9.238Z" transform="translate(-739.304 -24.469)" fill="#f8b500"/></g></svg>