<svg xmlns="http://www.w3.org/2000/svg" width="100" height="114.731" viewBox="0 0 100 114.731"><g transform="translate(451 228.004)"><g transform="translate(-451 -228.004)"><g transform="translate(2.205 0)"><path d="M19.126,32.58c-2.045-9.339-1.175-20.57,9.221-28.363S47.589,2.36,45.721,9.835c-1.9,7.582-4.7,17.15-3.791,24.949.676,5.789,1.728,6.906,3.027,9.474,1.4,2.78-.541,8.951-7.311,6.806C31.615,49.159,21.2,42.025,19.126,32.58Z" transform="translate(-9.724 -0.224)" fill="#ffe329"/><path d="M72.8,31.406c-1.675-6.136.588-17.631,5.877-23.761C84.289,1.174,91.118-.7,99.058.21c7.429.846,14.987,9.292,10.209,13.053-3.044,2.4-11,3.074-17.379,6.365C86.116,22.6,82.8,26.234,79.7,31.382,77.595,34.926,74.027,35.908,72.8,31.406Z" transform="translate(-31.995 0.004)" fill="#aace36"/><path d="M104.6,45.727c2.039-2.586,9.339-7.288,17.261-8.933s12.783.247,15.868,5.289,3.462,11.984-.3,12.595c-3.315.535-9.627-3.7-17.99-4.913-6.077-.876-9.838,0-13.088-.217C104.153,49.436,102.366,48.572,104.6,45.727Z" transform="translate(-44.906 -14.928)" fill="#72a57a"/><path d="M120.339,75.367c-.112-2.85,7.823-3.215,15.951-2s12.06,5.448,10.885,11.337-5.154,11.978-9.233,8.569c-2.715-2.274-10.749-8.816-14.54-12.8C121.25,78.241,120.392,76.8,120.339,75.367Z" transform="translate(-51.818 -29.975)" fill="#62c0b4"/><path d="M115.169,100.3c1.029-4.8,10.579,3.761,13.241,7.64s3.044,13.2-1.828,17.044-8.122-7.311-9.345-11.754S114.558,103.146,115.169,100.3Z" transform="translate(-49.628 -40.763)" fill="#9b85b1"/><path d="M84.86,111.228c4.467-1.029,5.877,8.863,5.877,15.563S88.7,140.6,74.082,139.585s-9.345-6.7-4.7-10.761a73.642,73.642,0,0,0,8.146-8.534C80.57,116.635,82.222,111.839,84.86,111.228Z" transform="translate(-28.799 -45.824)" fill="#ef8575"/><path d="M27.506,92.684c7.576,2.58,9.656,2.939,15.034,3.45,4.478.411,6.159,4.925,3.656,8.434s-11.478,12.994-25.272,10.356C10.692,112.972-.169,93.665,5.15,86.859,9.91,80.782,17.962,89.433,27.506,92.684Z" transform="translate(-3.752 -34.938)" fill="#f8b500"/></g><g transform="translate(0 103.441)"><path d="M13.647,187.031h-2.4l-1.128-2.269H3.526l-1.1,2.269H0L5.671,176h2.3Zm-9.362-3.814H9.356l-2.533-5.125Z" transform="translate(0 -176)" fill="#545e8d"/><path d="M37.847,179.326l-3.991,4.167h-.829l-3.961-4.114v7.64H26.78V176h1.763l4.913,5.16L38.376,176h1.7v11.061H37.847Z" transform="translate(-11.041 -176)" fill="#545e8d"/><path d="M66.659,187.031h-2.4l-1.128-2.269H56.526l-1.1,2.269H53L58.683,176h2.3ZM57.3,183.217h5.072l-2.533-5.125Z" transform="translate(-21.851 -176)" fill="#545e8d"/><path d="M91.742,187.031h-1.7l-7.952-7.852v7.852H79.8V176h1.763l7.928,7.817V176h2.28Z" transform="translate(-32.9 -176)" fill="#545e8d"/><path d="M114.44,182.2h-6.43v3.2h7.558v1.622H105.73V176h9.838v1.622H108.01v3.062h6.43Z" transform="translate(-43.591 -176)" fill="#545e8d"/><path d="M129.392,181.519,135.857,176h2.7v.217l-5.166,4.426,5.237,6.177v.241H136.11s-2.856-3.373-4.284-5.072l-2.468,2.1v2.968H127.1V176h2.292Z" transform="translate(-52.401 -176)" fill="#545e8d"/><path d="M150.39,182.347V176h2.28v6.347c0,1.828,1.175,3.191,3.526,3.191s3.526-1.363,3.526-3.191V176H162v6.347c0,2.874-2.122,4.943-5.783,4.943S150.39,185.221,150.39,182.347Z" transform="translate(-62.003 -176)" fill="#545e8d"/></g></g></g></svg>