<svg xmlns="http://www.w3.org/2000/svg" width="191.331" height="35" viewBox="0 0 191.331 35"><g transform="translate(87 639)"><g transform="translate(-87 -639)"><path d="M18.569,12.493c-.763-3.482-.438-7.671,3.439-10.577s7.175-.693,6.478,2.1c-.708,2.827-1.753,6.4-1.414,9.3A7.566,7.566,0,0,0,28.2,16.848c.522,1.037-.2,3.338-2.726,2.538C23.226,18.676,19.34,16.015,18.569,12.493Z" transform="translate(-15.063 -0.427)" fill="#ffe329"/><path d="M72.458,11.709A11.46,11.46,0,0,1,74.65,2.848,8.111,8.111,0,0,1,82.25.076c2.77.316,5.589,3.465,3.807,4.868-1.135.894-4.1,1.146-6.481,2.374A10.635,10.635,0,0,0,75.033,11.7C74.246,13.021,72.916,13.387,72.458,11.709Z" transform="translate(-57.242 0.004)" fill="#aace36"/><path d="M103.955,39.762a13.078,13.078,0,0,1,6.437-3.331c2.954-.614,4.767.092,5.917,1.972s1.291,4.469-.112,4.7c-1.236.2-3.59-1.381-6.709-1.832a33.973,33.973,0,0,0-4.881-.081C103.788,41.145,103.122,40.823,103.955,39.762Z" transform="translate(-81.695 -28.277)" fill="#72a57a"/><path d="M120.338,73.7c-.042-1.063,2.917-1.2,5.948-.745s4.5,2.032,4.059,4.228-1.922,4.466-3.443,3.2c-1.013-.848-4.008-3.287-5.422-4.773C120.678,74.773,120.358,74.236,120.338,73.7Z" transform="translate(-94.787 -56.775)" fill="#62c0b4"/><path d="M115.079,99.408c.384-1.791,3.945,1.4,4.938,2.849s1.135,4.922-.682,6.356-3.029-2.726-3.485-4.383S114.851,100.469,115.079,99.408Z" transform="translate(-90.638 -77.206)" fill="#9b85b1"/><path d="M72.1,111.181c1.666-.384,2.192,3.3,2.192,5.8s-.758,5.15-6.211,4.771-3.485-2.5-1.753-4.013a27.46,27.46,0,0,0,3.038-3.182C70.5,113.2,71.111,111.409,72.1,111.181Z" transform="translate(-51.19 -86.792)" fill="#ef8575"/><path d="M12.61,87.707a19.194,19.194,0,0,0,5.606,1.286,1.909,1.909,0,0,1,1.363,3.145A9.6,9.6,0,0,1,10.155,96C6.34,95.273,2.29,88.073,4.273,85.536,6.048,83.269,9.051,86.5,12.61,87.707Z" transform="translate(-3.752 -66.174)" fill="#f8b500"/></g><g transform="translate(-43.736 -628.535)"><path d="M20.206,192.334h-3.55l-1.671-3.359H5.221l-1.636,3.359H0L8.4,176h3.411ZM6.344,186.686h7.51L10.1,179.1Z" transform="translate(0 -176)" fill="#545e8d"/><path d="M43.166,180.925l-5.909,6.17H36.03L30.165,181v11.313H26.78V176h2.611l7.275,7.64L43.949,176h2.524v16.377H43.166Z" transform="translate(-3.476 -176)" fill="#545e8d"/><path d="M73.224,192.334h-3.55L68,188.975H58.221l-1.636,3.359H53L61.415,176h3.411Zm-13.863-5.648h7.51L63.121,179.1Z" transform="translate(-6.879 -176)" fill="#545e8d"/><path d="M97.483,192.334H94.959L83.185,180.708v11.626H79.8V176h2.611L94.15,187.574V176h3.376Z" transform="translate(-10.357 -176)" fill="#545e8d"/><path d="M118.627,185.181h-9.52v4.743H120.3v2.4H105.73V176H120.3v2.4H109.106v4.534h9.52Z" transform="translate(-13.722 -176)" fill="#545e8d"/><path d="M130.494,184.171,140.066,176h3.994v.322l-7.649,6.553,7.754,9.146v.357H140.44s-4.229-5-6.344-7.51l-3.655,3.115v4.395H127.1V176h3.394Z" transform="translate(-16.496 -176)" fill="#545e8d"/><path d="M150.39,185.4V176h3.376v9.4c0,2.706,1.74,4.725,5.221,4.725s5.221-2.019,5.221-4.725V176h3.376v9.4c0,4.255-3.141,7.319-8.563,7.319S150.39,189.654,150.39,185.4Z" transform="translate(-19.518 -176)" fill="#545e8d"/></g></g></svg>