<svg xmlns="http://www.w3.org/2000/svg" width="500" height="500" viewBox="0 0 500 500"><path d="M494.883,1.462a3.656,3.656,0,0,1,3.655,3.655V494.883a3.657,3.657,0,0,1-3.655,3.655H5.117a3.656,3.656,0,0,1-3.655-3.655V5.117A3.656,3.656,0,0,1,5.117,1.462H494.883m0-1.462H5.117A5.123,5.123,0,0,0,0,5.117V494.883A5.123,5.123,0,0,0,5.117,500H494.883A5.123,5.123,0,0,0,500,494.883V5.117A5.123,5.123,0,0,0,494.883,0Z" fill="#707070"/><path d="M0,338.5V342H3.5A3.5,3.5,0,0,1,0,338.5Z" transform="translate(0 158)" fill="#fff"/><path d="M3.5,0H0V3.5A3.5,3.5,0,0,1,3.5,0Z" fill="#fff"/><path d="M338.5,0A3.5,3.5,0,0,1,342,3.5V0Z" transform="translate(158)" fill="#fff"/><path d="M338.5,342H342v-3.5A3.5,3.5,0,0,1,338.5,342Z" transform="translate(158 158)" fill="#fff"/></svg>