<svg xmlns="http://www.w3.org/2000/svg" width="32" height="32" viewBox="0 0 32 32"><g transform="translate(1874.5 -868)"><path d="M823.181,241.352a1.418,1.418,0,0,1-1.417,1.418H808.6a1.418,1.418,0,0,1-1.417-1.418v-1.664a1.418,1.418,0,0,1,1.417-1.418h13.166a1.418,1.418,0,0,1,1.417,1.418Zm0,8.209a.708.708,0,0,1-.709.709H819.89a.708.708,0,0,1-.709-.709v-2.582a.708.708,0,0,1,.709-.709h2.582a.708.708,0,0,1,.709.709Zm0,6a.708.708,0,0,1-.709.709H819.89a.708.708,0,0,1-.709-.709v-2.582a.708.708,0,0,1,.709-.709h2.582a.708.708,0,0,1,.709.709Zm0,6a.708.708,0,0,1-.709.709H819.89a.708.708,0,0,1-.709-.709v-2.582a.708.708,0,0,1,.709-.709h2.582a.708.708,0,0,1,.709.709Zm-6-12a.708.708,0,0,1-.709.709H813.89a.708.708,0,0,1-.709-.709v-2.582a.708.708,0,0,1,.709-.709h2.582a.708.708,0,0,1,.709.709Zm0,6a.708.708,0,0,1-.709.709H813.89a.708.708,0,0,1-.709-.709v-2.582a.708.708,0,0,1,.709-.709h2.582a.708.708,0,0,1,.709.709Zm0,6a.708.708,0,0,1-.709.709H813.89a.708.708,0,0,1-.709-.709v-2.582a.708.708,0,0,1,.709-.709h2.582a.708.708,0,0,1,.709.709Zm-6-12a.708.708,0,0,1-.709.709H807.89a.708.708,0,0,1-.709-.709v-2.582a.708.708,0,0,1,.709-.709h2.582a.708.708,0,0,1,.709.709Zm0,6a.708.708,0,0,1-.709.709H807.89a.708.708,0,0,1-.709-.709v-2.582a.708.708,0,0,1,.709-.709h2.582a.708.708,0,0,1,.709.709Zm0,6a.708.708,0,0,1-.709.709H807.89a.708.708,0,0,1-.709-.709v-2.582a.708.708,0,0,1,.709-.709h2.582a.708.708,0,0,1,.709.709Zm13.6-27.291h-19.2c-1.957,0-1.9,1.586-1.9,3.543v24.914c0,1.957-.057,3.543,1.9,3.543h19.2c1.957,0,1.9-1.586,1.9-3.543V237.813c0-1.957.057-3.543-1.9-3.543" transform="translate(-2673.681 633.73)" fill="#5cbeb3"/><rect width="32" height="32" transform="translate(-1874.5 868)" fill="none"/></g></svg>