<svg xmlns="http://www.w3.org/2000/svg" width="32" height="32" viewBox="0 0 32 32"><g transform="translate(2382.131 -634.113)"><g transform="translate(-2.436 0.247)"><path d="M308.28,3.07a1.035,1.035,0,0,1-.376.456,1.057,1.057,0,0,1-.189.1c-.128-.006-.258-.011-.387-.011s-.264,0-.394.013l-.01,0a1.056,1.056,0,0,1-.456-.376,1.029,1.029,0,0,1-.174-.578,1,1,0,0,1,.08-.4,1.026,1.026,0,0,1,.376-.456,1.041,1.041,0,0,1,.979-.1,1.057,1.057,0,0,1,.456.376,1.029,1.029,0,0,1,.174.578.983.983,0,0,1-.08.4m7.65,10.709C315,9.222,313.1,5.224,309.64,4a2.68,2.68,0,1,0-4.621,0c-3.459,1.222-5.367,5.223-6.295,9.78-1.434,7.039-4.869,5.869-5.119,10.833-.136,2.743,10.7,3.431,13.722,3.431s13.857-.688,13.721-3.431c-.25-4.963-3.685-3.794-5.119-10.833" transform="translate(-2671 633.865)" fill="#ffb839"/><path d="M299.63,18.044a4.225,4.225,0,0,0,8.16,0c-1.707.146-3.215.2-4.08.2s-2.373-.058-4.08-.2" transform="translate(-2667.384 644.692)" fill="#ffb839"/></g><rect width="32" height="32" transform="translate(-2382.131 634.113)" fill="none"/></g></svg>