<svg xmlns="http://www.w3.org/2000/svg" width="32" height="32" viewBox="0 0 32 32"><g transform="translate(1874.5 -740.999)"><g transform="translate(-2.681 -0.942)"><path d="M820.809,134.015a4.952,4.952,0,0,0-4.373-5.142,3.932,3.932,0,0,1-2.512,0,4.952,4.952,0,0,0-4.373,5.142h11.258Z" transform="translate(-2671 633.865)" fill="#f2a51c"/><path d="M815.181,128.166a3.081,3.081,0,0,0,3.081-3.081v-.874a3.081,3.081,0,0,0-6.162,0v.874a3.081,3.081,0,0,0,3.081,3.081" transform="translate(-2671 633.865)" fill="#f2a51c"/><path d="M816.836,112.939a.552.552,0,0,1-.552.551h-2.207a.551.551,0,0,1-.551-.551v-1.1a.552.552,0,0,1,.551-.552h2.207a.552.552,0,0,1,.552.552Zm2.207-1.1a2.763,2.763,0,0,0-2.759-2.759h-2.207a2.762,2.762,0,0,0-2.758,2.759V116.8h7.724Z" transform="translate(-2671 633.865)" fill="#f2a51c"/><path d="M827.871,136.387H802.492V119.063h25.379Zm.182-20.635h-7.906V116.8a1.107,1.107,0,0,1-1.1,1.1h-7.724a1.107,1.107,0,0,1-1.1-1.1v-1.049H802.31a3.13,3.13,0,0,0-3.129,3.128V135.8a3.13,3.13,0,0,0,3.129,3.128h25.743a3.129,3.129,0,0,0,3.128-3.128V118.88a3.129,3.129,0,0,0-3.128-3.128" transform="translate(-2671 633.865)" fill="#f2a51c"/></g><rect width="32" height="32" transform="translate(-1874.5 740.999)" fill="none"/></g></svg>