<svg xmlns="http://www.w3.org/2000/svg" width="32" height="32" viewBox="0 0 32 32"><g transform="translate(1499.414 -868)"><path d="M1192.025,249.724l-.1.305a4.287,4.287,0,0,1-8.159,0l-.1-.305h-9.459a3.268,3.268,0,0,1,.375-.8l4.465-6.834a1.54,1.54,0,0,1,1.289-.7h15.016a1.541,1.541,0,0,1,1.29.7l4.465,6.834a3.268,3.268,0,0,1,.375.8Zm10.931-2.007-4.466-6.835a3.748,3.748,0,0,0-3.136-1.7h-15.016a3.749,3.749,0,0,0-3.135,1.7l-4.466,6.836a5.468,5.468,0,0,0-.89,2.991v7.016a3.631,3.631,0,0,0,3.63,3.631h24.739a3.633,3.633,0,0,0,3.631-3.631v-7.016a5.478,5.478,0,0,0-.891-2.991" transform="translate(-2671.261 633.865)" fill="#9e83b0"/><rect width="32" height="32" transform="translate(-1499.414 868)" fill="none"/></g></svg>