<svg xmlns="http://www.w3.org/2000/svg" width="32" height="32" viewBox="0 0 32 32"><g transform="translate(1506.694 -745.751)"><g transform="translate(-0.18 2.275)"><path d="M1196,121.21l-1.078-1.077a1.673,1.673,0,0,0-2.366,0l-1.008,1.008,3.444,3.444,1.008-1.008a1.675,1.675,0,0,0,0-2.367" transform="translate(-2671 633.865)" fill="#8db909"/><path d="M1165.641,120.9h2.9a1.156,1.156,0,0,0,0-2.311h-2.9a1.156,1.156,0,0,0,0,2.311" transform="translate(-2671 633.865)" fill="#8db909"/><rect width="2.161" height="7.285" transform="translate(-1505.087 755.975)" fill="#8db909"/><path d="M1169.695,131.759a1.156,1.156,0,0,0-1.155-1.156h-2.9a1.156,1.156,0,0,0,0,2.311h2.9a1.155,1.155,0,0,0,1.155-1.155" transform="translate(-2671 633.865)" fill="#8db909"/><path d="M1168.074,114.224a.452.452,0,0,1,.451-.451H1185a1.984,1.984,0,0,1,1.983,1.982v8.263l2.161-2.162v-6.1a4.145,4.145,0,0,0-4.144-4.144h-16.478a2.612,2.612,0,0,0-2.612,2.613v3.158h2.161Z" transform="translate(-2671 633.865)" fill="#8db909"/><path d="M1186.986,135.749a1.984,1.984,0,0,1-1.983,1.982h-16.478a.452.452,0,0,1-.451-.451v-3.156h-2.161v3.156a2.613,2.613,0,0,0,2.612,2.613H1185a4.144,4.144,0,0,0,4.144-4.144v-3.642l-2.161,2.161Z" transform="translate(-2671 633.865)" fill="#8db909"/><path d="M1182.1,130.586v3.444h3.444l8.505-8.506-3.444-3.443Z" transform="translate(-2671 633.865)" fill="#8db909"/><path d="M1173.214,122.039H1183.4v-1.3h-10.182Zm10.182,0a.65.65,0,1,0,0-1.3Zm-10.182-1.3a.65.65,0,1,0,0,1.3Z" transform="translate(-2671 633.865)" fill="#8db909"/><path d="M1173.214,127.857h5.818v-1.3h-5.818Zm5.818,0a.65.65,0,1,0,0-1.3Zm-5.818-1.3a.65.65,0,1,0,0,1.3Z" transform="translate(-2671 633.865)" fill="#8db909"/></g><rect width="32" height="32" transform="translate(-1506.694 745.751)" fill="none"/></g></svg>