<svg xmlns="http://www.w3.org/2000/svg" width="32" height="32.001" viewBox="0 0 32 32.001"><g transform="translate(2243 -741.999)"><g transform="translate(2.075 0.134)"><path d="M433.124,136c-1.807,0-2.61-.408-2.61-2.221V117.717h4.4a2.724,2.724,0,0,0,2.726-2.726V111.2h10.3c1.807,0,2.577.187,2.577,2v7.458a11.679,11.679,0,0,1,2.617,1.882V113.2a5.2,5.2,0,0,0-5.194-5.2h-11.09l-8.922,8.922v16.857a5.207,5.207,0,0,0,5.2,5.2h11.091A14.147,14.147,0,0,1,439.531,136Z" transform="translate(-2671 633.865)" fill="#ee887a"/><path d="M449.553,132.452a3.925,3.925,0,1,1,0-5.55,3.927,3.927,0,0,1,0,5.55m6.99,4.594s-2.29-2-2.838-2.549c-.8-.8-1.125-1.186-.841-1.836a6.78,6.78,0,1,0-3.1,3.1c.651-.284,1.037.038,1.836.842.547.547,2.549,2.837,2.549,2.837a1.7,1.7,0,0,0,2.4-2.4" transform="translate(-2671 633.865)" fill="#ee887a"/></g><rect width="32" height="32" transform="translate(-2243 741.999)" fill="none"/></g></svg>