<svg xmlns="http://www.w3.org/2000/svg" width="673.272" height="130.656" viewBox="0 0 673.272 130.656"><g transform="translate(-0.024 -0.094)"><g transform="translate(165.269 33.769)"><path d="M448.231,137.693H434.859l-6.308-12.661H391.724L385.5,137.693H372L403.674,75.9h12.883ZM395.944,116.37h28.342L410.115,87.761Z" transform="translate(-372 -75.9)" fill="#515d8c"/><path d="M634.349,94.647l-22.256,23.278h-4.62L585.349,94.958v42.735H572.6V75.9h9.773l27.409,28.831L637.325,75.9h9.507l.133,61.793H634.349Z" transform="translate(-483.486 -75.9)" fill="#515d8c"/><g transform="translate(176.628)"><path d="M845.831,137.693H832.415l-6.308-12.661H789.28L783.1,137.693H769.6L801.274,75.9h12.883ZM793.544,116.37h28.342L807.715,87.761Z" transform="translate(-769.6 -75.9)" fill="#515d8c"/></g><g transform="translate(251.703 0)"><path d="M938.6,75.9h61.171v9.062H975.56v52.731h-12.75V84.962H938.6Z" transform="translate(-938.6 -75.9)" fill="#515d8c"/></g><g transform="translate(322.514 0)"><path d="M1106.751,131.474q-8.729-7.663-8.751-19.946V75.9h12.75v35.628c0,5.286,1.688,9.6,5.064,12.883s8.219,4.931,14.482,4.931c6.353,0,11.195-1.644,14.526-4.887s5.02-7.552,5.02-12.927V75.9h12.75v35.628q0,12.328-8.618,19.991c-5.731,5.064-13.638,7.641-23.678,7.641Q1115.5,139.159,1106.751,131.474Z" transform="translate(-1098 -75.9)" fill="#515d8c"/><path d="M1355.836,137.693h-12.75V111.439H1303.95v26.254H1291.2V75.9h12.75v26.876h39.137V75.9h12.75Z" transform="translate(-1205.374 -75.9)" fill="#515d8c"/><path d="M1499.65,137.693H1486.9V75.9h12.75Z" transform="translate(-1314.137 -75.9)" fill="#515d8c"/></g></g><g transform="translate(0.024 0.094)"><path d="M28.759,45.59C26.316,32.618,27.56,16.8,42.042,5.964s26.343-2.443,23.722,8c-2.621,10.528-6.53,23.855-5.242,34.695.933,8.041,3.287,11.017,5.2,14.571,2.532,4.8-2.932,9.862-12.35,6.886-8.4-2.665-21.723-9.24-24.611-24.522" transform="translate(-15.443 -0.541)" fill="#ffdf22"/><path d="M127.224,43.854c-2.532-8.485,0-25.321,8.218-33.051C145.882.9,153.212-.659,164.273.363c9.951.888,19.147,12.705,15.282,19.235-2.8,4.62-17.325,2.532-25.721,7.907-7.063,4.531-12.439,9.329-16.97,16.392-3.6,5.553-7.685,6.441-9.64-.044" transform="translate(-70.195 -0.094)" fill="#a7cc39"/><path d="M185.928,80.183c2.843-3.6,13.016-10.173,24.033-12.439s18.658.578,22.878,7.641,4.22,16.659-.267,17.236c-4.531.577-14.438-4.8-25.988-6.8-7.819-1.333-13.283-.267-17.814-.577-3.065-.178-5.953-1.111-2.843-5.064" transform="translate(-102.6 -37.267)" fill="#6ca579"/><path d="M212.988,137.826c-.4-3.954,11.861-4.531,23.189-2.843s17.236,7.641,15.548,15.815c-1.688,8.218-7.907,16.97-13.283,11.861S226,149.11,220.9,145.112c-2.488-1.91-7.6-4.487-7.907-7.285" transform="translate(-118.377 -74.564)" fill="#5cbeb3"/><path d="M206.419,186.278c1.422-6.664,14.438,4.22,18.08,9.6,3.687,5.375,4.22,18.391-2.532,23.722-6.8,5.375-11.328-10.173-13.016-16.392s-3.376-12.972-2.532-16.925" transform="translate(-114.606 -102.404)" fill="#9e83b0"/><path d="M140.7,207.86c6.219-1.422,8.218,11.017,8.218,20.346s-2.843,19.235-23.189,17.814-13.016-9.329-6.486-14.971a103.918,103.918,0,0,0,11.328-11.861c4.22-5.109,6.486-10.484,10.129-11.328" transform="translate(-62.483 -115.501)" fill="#ee887a"/><path d="M35.019,167.41c10.528,3.6,16.126,5.953,23.189,8.218,6.886,2.177,4.22,8.751,0,13.016-4.22,4.22-16.659,13.016-35.894,9.329-14.216-2.71-27.72-29.941-20.079-39s19.5,3.909,32.785,8.44" transform="translate(-0.024 -86.645)" fill="#f8b600"/></g></g></svg>